<svg aria-hidden="true" style="position: absolute; width: 0; height: 0; overflow: hidden;" version="1.1" xmlns="http://www.w3.org/2000/svg" xmlns:xlink="http://www.w3.org/1999/xlink">
<defs>
<symbol id="icon-discord" viewBox="0 0 32 32">
<path d="M26.963 0c1.875 0 3.387 1.516 3.476 3.3v28.7l-3.569-3.031-1.96-1.784-2.139-1.864 0.893 2.94h-18.717c-1.869 0-3.387-1.42-3.387-3.301v-21.653c0-1.784 1.52-3.303 3.393-3.303h22zM18.805 7.577h-0.040l-0.269 0.267c2.764 0.8 4.101 2.049 4.101 2.049-1.781-0.891-3.387-1.336-4.992-1.516-1.16-0.18-2.32-0.085-3.3 0h-0.267c-0.627 0-1.96 0.267-3.747 0.98-0.623 0.271-0.98 0.448-0.98 0.448s1.336-1.336 4.28-2.049l-0.18-0.18c0 0-2.229-0.085-4.636 1.693 0 0-2.407 4.192-2.407 9.36 0 0 1.333 2.32 4.991 2.408 0 0 0.533-0.711 1.073-1.336-2.053-0.624-2.853-1.872-2.853-1.872s0.179 0.088 0.447 0.267h0.080c0.040 0 0.059 0.020 0.080 0.040v0.008c0.021 0.021 0.040 0.040 0.080 0.040 0.44 0.181 0.88 0.36 1.24 0.533 0.621 0.269 1.42 0.537 2.4 0.715 1.24 0.18 2.661 0.267 4.28 0 0.8-0.18 1.6-0.356 2.4-0.713 0.52-0.267 1.16-0.533 1.863-0.983 0 0-0.8 1.248-2.94 1.872 0.44 0.621 1.060 1.333 1.060 1.333 3.659-0.080 5.080-2.4 5.16-2.301 0-5.16-2.42-9.36-2.42-9.36-2.18-1.619-4.22-1.68-4.58-1.68zM19.029 13.461c0.937 0 1.693 0.8 1.693 1.78 0 0.987-0.76 1.787-1.693 1.787s-1.693-0.8-1.693-1.779c0.003-0.987 0.764-1.784 1.693-1.788zM12.972 13.461c0.933 0 1.688 0.8 1.688 1.78 0 0.987-0.76 1.787-1.693 1.787s-1.693-0.8-1.693-1.779c0-0.987 0.76-1.784 1.699-1.788z"></path>
</symbol>
<symbol id="icon-rsschool" viewBox="0 0 90 32">
<path d="M1.477 14.646v-14.4h7.385c1.354 0 2.462 0.123 3.2 0.369s1.354 0.738 1.723 1.354c0.492 0.738 0.738 1.477 0.615 2.338 0 1.477-0.615 2.708-1.969 3.446-0.369 0.246-0.862 0.492-1.477 0.492 0.369 0.123 0.862 0.369 1.231 0.615 0.246 0.246 0.492 0.492 0.738 0.738s0.492 0.615 0.615 0.862l2.215 4.185h-5.169l-2.338-4.431c-0.369-0.492-0.615-0.862-0.862-1.108-0.369-0.246-0.738-0.369-1.108-0.369h-0.369v5.785l-4.431 0.123zM5.908 6.031h1.846c0.369 0 0.738-0.123 1.231-0.246 0.246 0 0.492-0.246 0.738-0.492 0.492-0.615 0.369-1.354-0.123-1.846-0.369-0.123-0.985-0.246-1.723-0.246h-1.969v2.831zM0.492 26.954l4.185-0.246c0.123 0.738 0.246 1.231 0.615 1.6 0.492 0.615 1.108 0.862 1.969 0.862 0.615 0 1.108-0.123 1.477-0.492 0.369-0.246 0.492-0.615 0.492-0.985s-0.123-0.738-0.492-0.985c-0.369-0.246-1.108-0.615-2.338-0.862-1.969-0.492-3.323-0.985-4.185-1.723s-1.231-1.723-1.231-2.831c0-0.738 0.246-1.477 0.615-2.092 0.492-0.738 1.108-1.231 1.969-1.6s2.092-0.615 3.569-0.615c1.846 0 3.2 0.369 4.185 0.985 0.985 0.738 1.477 1.723 1.723 3.323l-4.185 0.246c-0.123-0.615-0.369-1.108-0.738-1.477-0.369-0.246-0.862-0.492-1.477-0.492-0.492 0-0.862 0.123-1.108 0.369s-0.369 0.492-0.369 0.862c0 0.246 0.123 0.492 0.369 0.615 0.246 0.246 0.738 0.369 1.477 0.492 1.969 0.369 3.323 0.862 4.185 1.231 0.862 0.492 1.477 0.985 1.846 1.6s0.615 1.354 0.615 2.092c0 0.862-0.246 1.846-0.738 2.585s-1.231 1.354-2.092 1.723c-1.108 0.615-2.338 0.862-3.692 0.862-2.462 0-4.185-0.492-5.046-1.477-0.985-0.862-1.477-2.092-1.6-3.569v0z"></path>
<path d="M21.785 25.846l3.938 1.231c-0.246 0.985-0.615 1.969-1.231 2.708-0.492 0.738-1.231 1.231-2.092 1.6s-1.846 0.615-3.2 0.615c-1.6 0-2.831-0.246-3.815-0.615-0.985-0.492-1.846-1.231-2.585-2.338s-1.108-2.585-1.108-4.431c0-2.338 0.615-4.185 1.846-5.538s3.077-1.969 5.415-1.969c1.846 0 3.2 0.369 4.308 1.108 0.985 0.738 1.846 1.846 2.338 3.323l-3.938 0.862c-0.123-0.369-0.246-0.615-0.492-0.985s-0.492-0.615-0.862-0.738-0.738-0.246-1.231-0.246c-0.985 0-1.846 0.369-2.338 1.231-0.369 0.615-0.615 1.6-0.615 2.831 0 1.6 0.246 2.708 0.738 3.323s1.108 0.862 2.092 0.862c0.862 0 1.477-0.246 1.969-0.738 0.369-0.492 0.738-1.231 0.862-2.092v0zM30.892 17.354h4.431v5.046h4.8v-5.046h4.431v14.4h-4.431v-5.785h-4.8v5.785h-4.431c0 0 0-14.4 0-14.4z"></path>
<path d="M44.062 24.492c0-2.338 0.615-4.185 1.969-5.538s3.2-1.969 5.415-1.969c2.338 0 4.185 0.615 5.538 1.969s2.092 3.2 2.092 5.538c0 1.723-0.246 3.077-0.862 4.185-0.492 1.108-1.354 1.969-2.462 2.462-1.108 0.615-2.462 0.862-4.062 0.862s-2.954-0.246-4.062-0.738c-1.108-0.492-1.969-1.354-2.585-2.462s-0.985-2.585-0.985-4.308zM48.492 24.615c0 1.477 0.246 2.462 0.862 3.2 0.492 0.615 1.231 0.985 2.215 0.985s1.723-0.246 2.215-0.985c0.492-0.615 0.738-1.723 0.738-3.323 0-1.354-0.246-2.338-0.862-2.954-0.492-0.615-1.231-0.985-2.215-0.985-0.862 0-1.6 0.369-2.215 0.985s-0.738 1.6-0.738 3.077v0z"></path>
<path d="M78.031 17.354h4.431v10.831h6.892v3.569h-11.446l0.123-14.4z"></path>
<path d="M76.185 3.815c-2.831-3.692-8.615-3.938-13.169-0.615s-5.785 9.108-2.954 12.8c2.831 3.692 8.615 3.938 13.169 0.615 4.431-3.446 5.785-9.231 2.954-12.8zM72.985 16.246c-2.092 1.6-4.554 2.462-7.015 2.338-2.338-0.123-4.431-1.108-5.662-2.831s-1.723-3.938-1.108-6.277c0.615-2.338 2.092-4.554 4.185-6.031 2.092-1.6 4.554-2.462 7.015-2.338 2.215 0.123 4.308 1.108 5.538 2.831s1.723 3.938 1.108 6.277c-0.492 2.338-1.969 4.431-4.062 6.031z"></path>
<path d="M63.631 8.862l1.6-1.231 1.969 2.831c0.369 0.492 0.615 0.985 0.738 1.477 0.123 0.369 0.123 0.862-0.123 1.231-0.246 0.492-0.492 0.862-0.985 1.231s-0.985 0.615-1.354 0.615c-0.369 0.123-0.738 0-1.108-0.123-0.369-0.246-0.738-0.492-0.985-0.862l1.354-1.231c0.123 0.123 0.246 0.369 0.369 0.492s0.246 0.123 0.369 0.123c0.123 0 0.246 0 0.246-0.123 0.123-0.123 0.246-0.246 0.246-0.492s-0.123-0.492-0.369-0.738l-1.969-3.2zM68.431 10.585l1.477-1.108c0.123 0.246 0.369 0.369 0.615 0.369 0.369 0.123 0.615 0 0.985-0.123 0.246-0.123 0.369-0.246 0.369-0.492 0.123-0.246-0.123-0.615-0.369-0.738 0 0-0.123 0-0.123 0-0.246 0-0.492 0.123-0.985 0.246-0.862 0.369-1.477 0.492-1.969 0.369-0.492 0-0.862-0.246-1.108-0.738-0.246-0.246-0.246-0.615-0.246-0.862 0-0.369 0.123-0.738 0.246-1.108 0.246-0.492 0.615-0.862 1.108-1.108 0.615-0.492 1.231-0.738 1.846-0.738 0.492 0 0.985 0.246 1.477 0.738l-1.6 1.231c-0.246-0.369-0.862-0.492-1.231-0.123v0c-0.123 0.123-0.246 0.246-0.369 0.369 0 0.123 0 0.246 0.123 0.369 0 0.123 0.123 0.246 0.123 0.246 0.123 0 0.369 0 0.615-0.246 0.862-0.369 1.477-0.492 1.846-0.615s0.738 0 1.108 0.123c0.246 0.123 0.615 0.369 0.738 0.615 0.246 0.369 0.369 0.738 0.369 1.108s-0.123 0.862-0.369 1.231c-0.246 0.492-0.615 0.862-1.108 1.108-0.862 0.615-1.6 0.862-2.215 0.738-0.492-0.123-0.985-0.369-1.354-0.862v0z"></path>
<path d="M59.2 9.6c0-0.246 0.123-0.492 0.123-0.615-0.123-0.369-0.246-0.738-0.492-1.108-0.369-0.615-0.985-1.108-1.846-1.6s-2.215-0.862-4.185-1.231c-0.738-0.123-1.231-0.369-1.477-0.492s-0.369-0.369-0.369-0.615c0-0.369 0.123-0.615 0.369-0.862s0.615-0.369 1.108-0.369c0.615 0 1.108 0.123 1.477 0.492 0.369 0.246 0.615 0.738 0.738 1.477l4.185-0.246c-0.123-1.477-0.738-2.585-1.723-3.323-0.862-0.738-2.215-1.108-4.062-1.108-1.477 0-2.708 0.246-3.569 0.615-0.738 0.246-1.477 0.862-1.969 1.6-0.369 0.615-0.615 1.354-0.615 2.092 0 1.108 0.492 2.092 1.231 2.831 0.862 0.738 2.215 1.354 4.185 1.723 1.231 0.246 1.969 0.492 2.215 0.862 0.246 0.246 0.492 0.615 0.492 0.985s-0.246 0.738-0.492 0.985c-0.369 0.246-0.862 0.492-1.477 0.492-0.862 0-1.477-0.246-1.969-0.862-0.246-0.369-0.492-0.862-0.615-1.6l-4.062 0.123c0.123 1.477 0.615 2.585 1.6 3.569s2.585 1.477 5.046 1.477c1.354 0 2.585-0.246 3.446-0.615s1.6-0.985 2.092-1.723c0.123-0.123 0.123-0.246 0.246-0.369 0-0.862 0.123-1.723 0.369-2.585z"></path>
<path d="M76.554 19.077c-1.231-1.231-2.831-1.846-4.923-1.969-1.723 0.985-3.692 1.477-5.538 1.477-0.246 0.123-0.369 0.369-0.615 0.492-1.354 1.354-1.969 3.2-1.969 5.538 0 1.723 0.369 3.077 0.985 4.185s1.477 1.846 2.585 2.462c1.108 0.492 2.338 0.738 4.062 0.738 1.6 0 2.954-0.246 4.062-0.862s1.846-1.477 2.462-2.462c0.615-1.108 0.862-2.462 0.862-4.185 0-2.338-0.738-4.185-1.969-5.415zM73.231 27.692c-0.492 0.615-1.231 0.985-2.215 0.985s-1.723-0.369-2.215-0.985c-0.492-0.615-0.862-1.723-0.862-3.2s0.246-2.462 0.862-3.2c0.492-0.615 1.354-0.985 2.215-0.985 0.985 0 1.723 0.246 2.215 0.985 0.492 0.615 0.862 1.6 0.862 2.954 0 1.723-0.369 2.831-0.862 3.446z"></path>
</symbol>
<symbol id="icon-mail" viewBox="0 0 32 32">
<path d="M29 4h-26c-1.65 0-3 1.35-3 3v20c0 1.65 1.35 3 3 3h26c1.65 0 3-1.35 3-3v-20c0-1.65-1.35-3-3-3zM12.461 17.199l-8.461 6.59v-15.676l8.461 9.086zM5.512 8h20.976l-10.488 7.875-10.488-7.875zM12.79 17.553l3.21 3.447 3.21-3.447 6.58 8.447h-19.579l6.58-8.447zM19.539 17.199l8.461-9.086v15.676l-8.461-6.59z"></path>
</symbol>
<symbol id="icon-telegram" viewBox="0 0 32 32">
<path d="M16 0c-8.838 0-16 7.162-16 16s7.162 16 16 16 16-7.163 16-16-7.163-16-16-16zM23.863 10.969l-2.625 12.369c-0.181 0.881-0.712 1.087-1.45 0.681l-4-2.956-1.919 1.869c-0.225 0.219-0.4 0.4-0.8 0.4-0.519 0-0.431-0.194-0.606-0.688l-1.363-4.475-3.956-1.231c-0.856-0.262-0.862-0.85 0.194-1.269l15.412-5.95c0.7-0.319 1.381 0.169 1.113 1.25z"></path>
</symbol>
<symbol id="icon-github" viewBox="0 0 32 32">
<path d="M16 0.395c-8.836 0-16 7.163-16 16 0 7.069 4.585 13.067 10.942 15.182 0.8 0.148 1.094-0.347 1.094-0.77 0-0.381-0.015-1.642-0.022-2.979-4.452 0.968-5.391-1.888-5.391-1.888-0.728-1.849-1.776-2.341-1.776-2.341-1.452-0.993 0.11-0.973 0.11-0.973 1.606 0.113 2.452 1.649 2.452 1.649 1.427 2.446 3.743 1.739 4.656 1.33 0.143-1.034 0.558-1.74 1.016-2.14-3.554-0.404-7.29-1.777-7.29-7.907 0-1.747 0.625-3.174 1.649-4.295-0.166-0.403-0.714-2.030 0.155-4.234 0 0 1.344-0.43 4.401 1.64 1.276-0.355 2.645-0.532 4.005-0.539 1.359 0.006 2.729 0.184 4.008 0.539 3.054-2.070 4.395-1.64 4.395-1.64 0.871 2.204 0.323 3.831 0.157 4.234 1.026 1.12 1.647 2.548 1.647 4.295 0 6.145-3.743 7.498-7.306 7.895 0.574 0.497 1.085 1.47 1.085 2.963 0 2.141-0.019 3.864-0.019 4.391 0 0.426 0.288 0.925 1.099 0.768 6.354-2.118 10.933-8.113 10.933-15.18 0-8.837-7.164-16-16-16z"></path>
</symbol>
</defs>
</svg>
