<svg aria-hidden="true" style="position: absolute; width: 0; height: 0; overflow: hidden;" version="1.1" xmlns="http://www.w3.org/2000/svg" xmlns:xlink="http://www.w3.org/1999/xlink">
<defs>
<symbol id="icon-discord" viewBox="0 0 32 32">
<path d="M26.963 0c1.875 0 3.387 1.516 3.476 3.3v28.7l-3.569-3.031-1.96-1.784-2.139-1.864 0.893 2.94h-18.717c-1.869 0-3.387-1.42-3.387-3.301v-21.653c0-1.784 1.52-3.303 3.393-3.303h22zM18.805 7.577h-0.040l-0.269 0.267c2.764 0.8 4.101 2.049 4.101 2.049-1.781-0.891-3.387-1.336-4.992-1.516-1.16-0.18-2.32-0.085-3.3 0h-0.267c-0.627 0-1.96 0.267-3.747 0.98-0.623 0.271-0.98 0.448-0.98 0.448s1.336-1.336 4.28-2.049l-0.18-0.18c0 0-2.229-0.085-4.636 1.693 0 0-2.407 4.192-2.407 9.36 0 0 1.333 2.32 4.991 2.408 0 0 0.533-0.711 1.073-1.336-2.053-0.624-2.853-1.872-2.853-1.872s0.179 0.088 0.447 0.267h0.080c0.040 0 0.059 0.020 0.080 0.040v0.008c0.021 0.021 0.040 0.040 0.080 0.040 0.44 0.181 0.88 0.36 1.24 0.533 0.621 0.269 1.42 0.537 2.4 0.715 1.24 0.18 2.661 0.267 4.28 0 0.8-0.18 1.6-0.356 2.4-0.713 0.52-0.267 1.16-0.533 1.863-0.983 0 0-0.8 1.248-2.94 1.872 0.44 0.621 1.060 1.333 1.060 1.333 3.659-0.080 5.080-2.4 5.16-2.301 0-5.16-2.42-9.36-2.42-9.36-2.18-1.619-4.22-1.68-4.58-1.68zM19.029 13.461c0.937 0 1.693 0.8 1.693 1.78 0 0.987-0.76 1.787-1.693 1.787s-1.693-0.8-1.693-1.779c0.003-0.987 0.764-1.784 1.693-1.788zM12.972 13.461c0.933 0 1.688 0.8 1.688 1.78 0 0.987-0.76 1.787-1.693 1.787s-1.693-0.8-1.693-1.779c0-0.987 0.76-1.784 1.699-1.788z"></path>
</symbol>
<symbol id="icon-mail" viewBox="0 0 32 32">
<path d="M29 4h-26c-1.65 0-3 1.35-3 3v20c0 1.65 1.35 3 3 3h26c1.65 0 3-1.35 3-3v-20c0-1.65-1.35-3-3-3zM12.461 17.199l-8.461 6.59v-15.676l8.461 9.086zM5.512 8h20.976l-10.488 7.875-10.488-7.875zM12.79 17.553l3.21 3.447 3.21-3.447 6.58 8.447h-19.579l6.58-8.447zM19.539 17.199l8.461-9.086v15.676l-8.461-6.59z"></path>
</symbol>
<symbol id="icon-telegram" viewBox="0 0 32 32">
<path d="M16 0c-8.838 0-16 7.162-16 16s7.162 16 16 16 16-7.163 16-16-7.163-16-16-16zM23.863 10.969l-2.625 12.369c-0.181 0.881-0.712 1.087-1.45 0.681l-4-2.956-1.919 1.869c-0.225 0.219-0.4 0.4-0.8 0.4-0.519 0-0.431-0.194-0.606-0.688l-1.363-4.475-3.956-1.231c-0.856-0.262-0.862-0.85 0.194-1.269l15.412-5.95c0.7-0.319 1.381 0.169 1.113 1.25z"></path>
</symbol>
<symbol id="icon-menu-open" viewBox="0 0 32 32">
<path d="M6.4 11.733v-2.133h19.2v2.133h-19.2zM6.4 17.067h19.2v-2.133h-19.2v2.133zM6.4 22.4h19.2v-2.133h-19.2v2.133z"></path>
</symbol>
<symbol id="icon-logo_rs" viewBox="0 0 61 32">
<path fill="#010102" style="fill: var(--color1, #010102)" d="M12.021 4.808c0.85-2.794 3.597-4.429 6.369-4.771 2.211-0.133 4.613 0.212 6.362 1.682 1.2 0.922 1.66 2.43 2.075 3.822 0.679 0 1.36 0.016 2.040 0.063 0.114-1.79 1.648-3.143 3.239-3.727 0.985-0.402 1.923 0.158 2.785 0.58 0.733-0.355 1.381-1.030 2.265-0.905 0.758-0.086 1.517 0.643 2.237 0.215 1.067-0.592 2.449-0.776 3.517-0.082 1.117 0.522 1.498 1.793 1.789 2.893 2.243-0.783 4.932-0.947 6.913 0.586 0.58-0.257 1.154-0.529 1.727-0.805 0.415-1.917 2.522-3.175 4.403-2.68 2.081 0.447 3.428 3.073 2.076 4.895 0.323 1.109 0.412 2.294-0.013 3.393 0.837 0.83 1.746 1.834 1.55 3.114 0.155 1.733-1.128 3.111-2.452 4.023 0.849 1.293 0.326 2.842 0.817 4.227 0.321 1.331 0.073 2.867-0.997 3.809-1.47 1.572-3.802 1.34-5.744 1.696-0.355-0.228-0.709-0.456-1.064-0.675-1.977 0.931-4.42 1.102-6.239-0.283-0.716 0.679-1.578 1.167-2.522 1.446-0.967 1.327-2.239 2.655-3.926 2.95-1.629 0.058-2.763-1.41-3.055-2.886-1.635 0.513-3.32 0.282-4.911-0.266-1.392 1.116-3.323 1.248-4.974 0.694-0.706 1.378-1.701 2.642-3.121 3.336-3.029 1.514-7.192 1.008-9.366-1.739-1.815-2.24-1.518-5.744 0.621-7.674-0.317-0.694-0.561-1.417-0.694-2.164-0.428-0.127-0.852-0.257-1.274-0.38-0.406 0.212-0.812 0.425-1.213 0.64-2.145 0.007-4.315-0.212-6.416 0.346-0.592-0.425-1.299-0.748-1.689-1.388-0.368-0.656-0.292-1.426-0.31-2.145-2.744-0.805-3.634-4.638-1.73-6.672 1.179-1.271 3.006-1.48 4.644-1.404 1.036-0.504 2.263-1.179 3.371-0.409 1.392 0.609 1.195 2.335 1.908 3.438 1.059 0.706 2.243-0.288 3.384-0.291-2.298-1.202-2.938-4.139-2.384-6.5z"></path>
<path fill="#f9fcfa" style="fill: var(--color2, #f9fcfa)" d="M17.546 2.242c1.856-0.551 3.99-0.51 5.684 0.497 1.79 0.995 2.37 3.634 1.143 5.282-0.51 0.678-1.359 0.941-2.104 1.261 0.909 2.398 2.313 5.117 4.956 5.891 1.527 0.415 2.725-1.093 4.207-0.95 0.827 0.022 0.764 1.055 0.833 1.644-1.372 2.11-4.35 2.477-6.492 1.422-2.148-1.099-3.532-3.257-4.401-5.44-0.345-0.871-0.624-1.762-0.918-2.649-0.137 0.020-0.416 0.054-0.551 0.073 0.032 0.526 0.067 1.055 0.105 1.584 0.336 0.152 0.671 0.304 1.010 0.459-0.086 0.39-0.177 0.784-0.275 1.172-0.614 1.075-1.546 1.939-2.63 2.528-0.31-0.295-0.7-0.52-0.903-0.904 0.257-0.721 0.827-1.33 0.852-2.129 0.045-1.375-0.149-2.747-0.124-4.122 0.035-0.817-0.548-1.451-0.979-2.075 0.671-0.906 1.815-0.748 2.806-0.726 0.099 0.171 0.2 0.342 0.304 0.516-0.137 0.726-0.196 1.46-0.221 2.198 0.903-0.003 2.006 0.114 2.594-0.738 0.925-1.033 0.067-2.635-1.128-2.993-1.838-0.625-4.49-0.168-5.225 1.866 0.307 1.15 1.442 1.977 1.366 3.229-0.488 0.183-1.004 0.611-1.54 0.32-1.498-0.773-2.009-2.725-1.524-4.255 0.38-1.491 1.726-2.549 3.155-2.96z"></path>
<path fill="#f4faf9" style="fill: var(--color3, #f4faf9)" d="M40.89 3.253c0.488-0.178 1.014-0.060 1.521-0.048 0.428 0.767 0.709 1.942-0.092 2.563-0.634 0.244-1.568 0.206-1.856-0.52-0.463-0.659-0.045-1.476 0.427-1.996z"></path>
<path fill="#f8fcf9" style="fill: var(--color4, #f8fcf9)" d="M31.293 5.214c0.408-0.871 1.321-1.334 2.16-1.705 1.141 2.601 0.485 5.545 1.001 8.272 0.282 0.333 0.608 0.63 0.922 0.941 0.009 0.171 0.025 0.516 0.035 0.688-1.106 0.523-2.357 0.387-3.539 0.304-0.010-0.193-0.025-0.583-0.035-0.776 0.225-0.345 0.453-0.691 0.627-1.064-0.045-1.876-0.301-3.742-0.266-5.621-0.303-0.34-1.092-0.432-0.905-1.040z"></path>
<path fill="#f8fcf9" style="fill: var(--color4, #f8fcf9)" d="M35.644 4.656c0.655-0.564 1.325-1.166 2.199-1.347 0.678 1.511 0.554 3.21 0.716 4.825 0.12 1.426-0.298 3.127 0.859 4.23 0.383 0 0.767 0 1.154 0 0.152-0.18 0.453-0.538 0.602-0.716 0.009-0.957 0.009-1.914-0.035-2.868-0.282-0.070-0.846-0.205-1.128-0.275 0.266-1.144 1.286-1.815 2.3-2.234 0.691 1.609 0.364 3.406 0.697 5.091 0.338 0.352 0.681 0.703 1.026 1.055-0.013 0.155-0.035 0.46-0.045 0.612-1.023 0.191-2.063 0.276-3.102 0.288-0.324-0.244-0.646-0.479-0.967-0.72-0.776 1.432-2.664 0.995-3.96 0.713 0.276-0.764 0.912-1.438 0.808-2.301-0.063-1.372-0.158-2.743-0.225-4.115-0.047-0.33-0.089-0.656-0.124-0.983-0.671-0.117-0.754-0.693-0.775-1.257z"></path>
<path fill="#f6faf7" style="fill: var(--color5, #f6faf7)" d="M55.946 4.152c0.653-1.242 2.994-0.659 2.652 0.846-0.431 0.741-1.305 0.38-1.987 0.421 0.735 0.995 2.148 1.907 1.67 3.336-0.567 1.33-2.227 1.438-3.438 1.838-0.063 0.136-0.19 0.409-0.254 0.548 1.309 0.672 2.756-0.38 4.072 0.26 0.64 0.222 0.878 0.91 1.143 1.47-0.45 2.192-2.911 3.044-4.901 2.893-0.846-0.149-1.964-0.269-2.405-1.109-0.396-0.767 0.33-1.708 1.15-1.559 0.716 0.501 1.334 1.142 2.126 1.534 0.726-0.275 2.037-0.396 1.8-1.48-0.393-0.545-1.125-0.475-1.708-0.428-0.878 0.070-1.758 0.070-2.639 0.050-0.228-0.228-0.453-0.456-0.678-0.681-0.004-0.291-0.004-0.58-0.004-0.865 0.349-0.32 0.7-0.64 1.058-0.95-0.403-0.459-1.017-0.814-1.125-1.458-0.231-0.716 0.178-1.381 0.446-2.012 0.967-0.526 2.025-0.821 3.111-0.97-0.154-0.541-0.6-1.204-0.090-1.685z"></path>
<path fill="#f8fbf9" style="fill: var(--color6, #f8fbf9)" d="M47.477 6.772c0.767-0.482 1.78-1.128 2.664-0.532 0.957 0.649 0.824 1.914 0.919 2.918-0.041 0.855 0.88 1.274 0.941 2.104-0.795 0.846-1.587 2.275-2.969 1.765 0.25-1.66 0.7-3.469-0.086-5.053-0.485 0.124-0.96 0.253-1.442 0.377-0.126 0.668-0.364 1.337-0.27 2.027 0.083 0.922 0.941 1.448 1.363 2.211-1.102 0.539-2.331 0.542-3.527 0.475-0.124-0.152-0.374-0.459-0.497-0.611 0.304-0.317 0.612-0.627 0.935-0.925 0.086-0.259 0.178-0.513 0.266-0.77-0.139-0.684-0.203-1.378-0.241-2.072-0.238-0.044-0.706-0.133-0.944-0.177 0.006-0.488 0.126-0.954 0.304-1.4 0.542-0.364 1.080-0.735 1.635-1.087 0.342 0.387 0.576 0.84 0.804 1.305 0.037-0.137 0.11-0.412 0.144-0.552z"></path>
<path fill="#030207" style="fill: var(--color7, #030207)" d="M54.197 8.078c0.241-0.9 1.287-0.839 2.015-0.722 0.234 0.359 0.425 0.738 0.564 1.151-0.51 0.307-1.055 0.542-1.604 0.767-0.382-0.314-1.282-0.504-0.975-1.195z"></path>
<path fill="#f8fbf6" style="fill: var(--color8, #f8fbf6)" d="M26.515 7.672c1.391-0.684 3.292-0.218 4.020 1.201 0.656 1.43 0.691 3.336-0.497 4.499-0.871 0.963-2.36 0.855-3.507 0.577-2.414-1.058-2.446-5.212-0.016-6.276z"></path>
<path fill="#020103" style="fill: var(--color9, #020103)" d="M26.905 9.32c0.679-0.76 2.091-0.269 2.211 0.726 0.101 0.821 0.259 1.952-0.634 2.414-0.624 0.086-1.463 0.162-1.756-0.545-0.383-0.783-0.458-1.933 0.178-2.595z"></path>
<path fill="#f2faf9" style="fill: var(--color10, #f2faf9)" d="M7.056 10.508c0.456-0.509 1.021-0.836 1.721-0.697-0.004 0.577 0.086 1.261-0.475 1.622-0.497 0.12-1.008 0.13-1.512 0.175 0.073 1.21 0.057 2.423 0.162 3.631 0.216 0.269 0.434 0.542 0.653 0.817-0.599 0.812-1.213 1.879-2.389 1.788 0.209-1.287 0.916-2.735 0.045-3.929-0.513 0.801-1.863 0.684-2.37-0.060-0.726-0.827-0.574-2.284 0.358-2.902 1.102-0.8 2.55-0.308 3.807-0.444z"></path>
<path fill="#030408" style="fill: var(--color11, #030408)" d="M3.599 13.004c0.133-0.513 0.048-1.201 0.653-1.419 0.409-0.086 0.824-0.127 1.245-0.127 0.029 0.618 0.070 1.239 0.126 1.863-0.637-0.31-1.344-0.27-2.025-0.317z"></path>
<path fill="#f2f9f8" style="fill: var(--color12, #f2f9f8)" d="M8.301 11.433c0.231 0.086 0.693 0.254 0.928 0.336 0.117 0.659 0.124 1.334 0.175 2.006 0.713-0.362 1.445-0.491 2.147-0.028 0.073 0.611 0.137 1.222 0.184 1.838 0.193 0.272 0.389 0.548 0.586 0.826-0.355 0.416-0.72 0.821-1.102 1.213-0.228-0.045-0.681-0.133-0.909-0.178 0.333-0.922 0.589-1.996-0.028-2.867-0.295 0.104-0.574 0.246-0.852 0.386 0.007 0.441 0.025 0.887 0.057 1.331 0.225 0.368 0.459 0.732 0.706 1.089-0.754 0.105-1.514 0.171-2.275 0.187-0.016-0.121-0.048-0.364-0.063-0.488 0.196-0.3 0.393-0.596 0.58-0.896-0.231-0.973-0.216-1.977-0.218-2.969-1.129-0.263-0.128-1.175 0.084-1.787z"></path>
<path fill="#f1fbf9" style="fill: var(--color13, #f1fbf9)" d="M13.566 13.36c0.97-0.192 2.301-0.108 2.528 1.093 0.38 1.368-1.445 1.198-2.3 1.235 0.045 0.139 0.137 0.418 0.184 0.558 0.732-0.016 1.406-0.339 2.129-0.421 0.244 1.73-2.756 1.993-3.225 0.457-0.573-1.033-0.116-2.177 0.685-2.921z"></path>
<path fill="#f8fcf9" style="fill: var(--color4, #f8fcf9)" d="M20.083 16.28c0.662 0.098 1.261-0.751 1.885-0.27 0.85 0.713 1.366 1.85 1.325 2.963-0.279 0.231-0.599 0.396-0.913 0.57-0.799-0.666-1.6-1.362-2.594-1.704-0.387 0.139-0.776 0.279-1.16 0.421-0.051 0.475-0.58 1.112 0.063 1.397 1.647 0.954 3.659 1.167 5.168 2.405 0.893 1.195 1.204 2.684 1.061 4.153-0.951 3.653-6.067 4.645-8.703 2.224-1.648-1.359-1.663-4.486 0.32-5.548 1.039-0.643 2.557-0.634 3.346 0.396-0.146 0.346-0.288 0.694-0.431 1.042-0.706 0.241-1.571 0.279-2.059 0.912-0.244 0.893 0.118 1.959 1.017 2.326 1.191 0.525 2.806 0.405 3.748-0.554 1.064-1.213 0.745-3.339-0.697-4.115-1.416-0.751-3.067-1.011-4.403-1.923-1.049-0.726-1.229-2.284-0.471-3.281 0.733-1.167 2.187-1.591 3.498-1.414z"></path>
<path fill="#f7faf9" style="fill: var(--color14, #f7faf9)" d="M53.221 17.871c0.865-0.772 2.164 0 3.048-0.735 0.162 0 0.488-0.003 0.65-0.003 0.43 0.679 0.763 1.416 1.033 2.18-0.919 0.827-1.854-0.019-2.665-0.529-0.146 0.020-0.443 0.050-0.589 0.070-0.004 0.247-0.007 0.497-0.004 0.751 1.042 0.475 2.317 0.596 3.143 1.458 0.63 0.672 0.181 1.584-0.003 2.351-0.833 0.716-1.898 0.912-2.965 0.722-0.383 0.187-0.789 0.554-1.242 0.362-0.754-0.634-1.242-1.568-1.21-2.564 1.15-0.605 2.038 0.517 3.060 0.865 0.754 0.304 0.587-0.63 0.675-1.036-1.075-0.345-2.164-0.666-3.172-1.181-0.114-0.184-0.342-0.551-0.456-0.734-0.014-0.717 0.129-1.484 0.696-1.975z"></path>
<path fill="#f8fcf9" style="fill: var(--color4, #f8fcf9)" d="M40.665 18.939c0.878-0.52 1.959-1.084 2.963-0.52 1.935 1.089 2.17 4.027 0.922 5.724-0.617 0.973-2.079 1.261-3.001 0.561-0.542-0.279-0.586-1.167-0.101-1.518 0.453-0.067 0.916-0.095 1.381-0.088 0.738-0.71 0.929-1.698 0.446-2.614-0.177-0.124-0.532-0.371-0.709-0.495-0.678 0.007-1.539 0.174-1.695 0.963-0.117 1.058-0.038 2.129 0.004 3.193-0.016 0.612 0.608 0.913 0.891 1.392 0.146 0.496-0.333 0.836-0.583 1.194-0.612 0.587-1.264 1.448-2.224 1.192-0.387-0.871 0.158-1.777 0.133-2.668-0.057-1.43-0.244-2.848-0.206-4.277-0.308-0.15-0.614-0.295-0.916-0.441-0.029-0.178-0.086-0.533-0.111-0.71 0.621-0.671 1.299-1.426 2.275-1.501 0.134 0.151 0.4 0.458 0.533 0.611z"></path>
<path fill="#f8fbf9" style="fill: var(--color6, #f8fbf9)" d="M46.983 18.593c1.299-1.312 3.881-1.062 4.695 0.678 0.32 0.675 0.52 1.844-0.33 2.202-1.052 0.548-2.252 0.387-3.387 0.396 0.029 0.162 0.092 0.491 0.124 0.653 1.252 0.925 2.421-0.387 3.729-0.342 0.025 0.396 0.108 0.799 0.057 1.201-0.469 0.837-1.489 1.036-2.319 1.334-1.575 0.022-3.162-0.988-3.409-2.614-0.365-1.214-0.036-2.589 0.839-3.508z"></path>
<path fill="#f9fdf8" style="fill: var(--color15, #f9fdf8)" d="M32.016 19.775c0.799-1.213 2.459-1.287 3.723-0.918 1.572 0.58 1.879 2.459 1.831 3.928-0.276 0.859-0.63 1.828-1.505 2.25-0.846 0.495-1.847 0.304-2.776 0.338-2.024-0.998-2.661-3.831-1.273-5.598z"></path>
<path fill="#f7fcf8" style="fill: var(--color16, #f7fcf8)" d="M26.509 19.645c0.586-0.52 1.381-0.646 2.107-0.855 0.668 0.234 1.435 0.368 1.948 0.897 0.383 0.516 0.282 1.317-0.32 1.631-0.865-0.349-1.72-0.814-2.684-0.666-0.541 0.96-0.783 2.389 0.225 3.136 1.077 0.529 2.091-0.558 3.203-0.387 0.022 0.564 0.288 1.334-0.333 1.685-0.842 0.805-2.101 0.852-3.177 0.63-2.384-0.863-2.882-4.494-0.968-6.072z"></path>
<path fill="#03080a" style="fill: var(--color17, #03080a)" d="M48.196 19.459c0.808-0.184 1.993-0.38 2.053 0.786-0.852 0.244-1.733 0.363-2.617 0.408 0.181-0.402 0.371-0.798 0.565-1.194z"></path>
<path fill="#040304" style="fill: var(--color18, #040304)" d="M33.619 20.365c0.538-0.247 1.134-0.070 1.695 0.003 0.416 0.799 0.745 1.723 0.38 2.614-0.33 1.099-2.129 1.125-2.503 0.029-0.13-0.881-0.32-1.98 0.427-2.646z"></path>
</symbol>
<symbol id="icon-menu-close" viewBox="0 0 32 32">
<path d="M23.733 10.304l-1.504-1.504-5.963 5.963-5.963-5.963-1.504 1.504 5.963 5.963-5.963 5.963 1.504 1.504 5.963-5.963 5.963 5.963 1.504-1.504-5.963-5.963 5.963-5.963z"></path>
</symbol>
<symbol id="icon-github" viewBox="0 0 32 32">
<path d="M16 0.395c-8.836 0-16 7.163-16 16 0 7.069 4.585 13.067 10.942 15.182 0.8 0.148 1.094-0.347 1.094-0.77 0-0.381-0.015-1.642-0.022-2.979-4.452 0.968-5.391-1.888-5.391-1.888-0.728-1.849-1.776-2.341-1.776-2.341-1.452-0.993 0.11-0.973 0.11-0.973 1.606 0.113 2.452 1.649 2.452 1.649 1.427 2.446 3.743 1.739 4.656 1.33 0.143-1.034 0.558-1.74 1.016-2.14-3.554-0.404-7.29-1.777-7.29-7.907 0-1.747 0.625-3.174 1.649-4.295-0.166-0.403-0.714-2.030 0.155-4.234 0 0 1.344-0.43 4.401 1.64 1.276-0.355 2.645-0.532 4.005-0.539 1.359 0.006 2.729 0.184 4.008 0.539 3.054-2.070 4.395-1.64 4.395-1.64 0.871 2.204 0.323 3.831 0.157 4.234 1.026 1.12 1.647 2.548 1.647 4.295 0 6.145-3.743 7.498-7.306 7.895 0.574 0.497 1.085 1.47 1.085 2.963 0 2.141-0.019 3.864-0.019 4.391 0 0.426 0.288 0.925 1.099 0.768 6.354-2.118 10.933-8.113 10.933-15.18 0-8.837-7.164-16-16-16z"></path>
</symbol>
</defs>
</svg>
